<svg version="1.1" xmlns="http://www.w3.org/2000/svg" xmlns:xlink="http://www.w3.org/1999/xlink" x="0px" y="0px"
	 width="984.12px" height="984.12px" viewBox="0 0 984.12 984.12"
	 style="overflow:visible;enable-background:new 0 0 984.12 984.12;" xml:space="preserve">
<style type="text/css">
	.st0{fill:url(#SVGID_1_);stroke:#393E46;stroke-miterlimit:10;}
	.st1{fill:#FFC600;}
	.st2{fill:#FFC600;stroke:#B3B3B3;stroke-miterlimit:10;}
	.st3{fill:#B3B3B3;stroke:#B3B3B3;stroke-miterlimit:10;}
	.st4{fill:#333333;stroke:#B3B3B3;stroke-miterlimit:10;}
	.st5{fill:#808080;stroke:#B3B3B3;stroke-miterlimit:10;}
	.st6{fill:none;stroke:#B3B3B3;stroke-miterlimit:10;}
	.st7{fill:#CCCCCC;}
	.st8{fill:none;stroke:#333333;stroke-miterlimit:10;}
	.st9{fill:#999999;}
	.st10{fill:none;stroke:#CCCCCC;stroke-miterlimit:10;}
	.st11{fill:url(#SVGID_2_);stroke:#393E46;stroke-miterlimit:10;}
</style>
<defs>
</defs>
<g id="Capa_2_2_">
	<linearGradient id="SVGID_1_" gradientUnits="userSpaceOnUse" x1="492.06" y1="0.5" x2="492.06" y2="983.6201">
		<stop  offset="0" style="stop-color:#5800FF"/>
		<stop  offset="1" style="stop-color:#E900FF"/>
	</linearGradient>
	<circle class="st0" cx="492.06" cy="492.06" r="491.56"/>
</g>
<g id="Capa_12_1_">
	<g>
		<g>
			<path class="st1" d="M727.38,199.62c0,0-54.71,7.23-101.68,91.35c0,0-19.1,18.06-25.81,20.65c-6.71,2.58-20.65,4.54-22.71,20.34
				s26.84,48.83,34.58,57.6c7.74,8.77,2.52-2.98,2.52-2.98l41.35,6.23l-3.41,24.62l-37.94,9.29c0,0,11.1,21.16,21.84,20.65
				c0,0,35.51,2.06,41.19,7.74s11.87,9.29,11.87,9.29l102.71,60.39l96.52,27.35l90.59-7.83c0,0-15.24-111.18-26.59-135.66
				c0,0-41.29-118.71-60.9-120.26c-19.61-1.55-50.06-58.84-50.06-58.84S801.71,189.81,727.38,199.62z"/>
			<path class="st1" d="M550.09,565.04l-21.05,9.82L344.93,707.49l-60.39,42.58l-41.03,19.13l6.97,13.38c0,0,24,17.81,22.45,30.97
				c0,0-19.35,21.68-11.61,48c7.74,26.32,273.06,117.27,273.06,117.27s102.63-3.37,212.34-70.04
				c73.04-44.39,150.98-121.79,185.82-205.94L550.09,565.04z"/>
			<path class="st2" d="M166.87,795.75c0,6.19,25.55,55.74,25.55,55.74s13.16,19.35,32.52,26.32c19.35,6.97,46.45-17.03,46.45-17.03
				s21.29-29.42,12.39-55.74c-11.8-34.89-35.61-35.84-35.61-35.84l-39.48-2.1L166.87,795.75z"/>
		</g>
		<g>
			<path d="M811.77,264.65c0,0,34.06,12.39,38.71,51.87c0,0,36.39-9.29,46.45-41.03c8.89-28.05-6.97-53.42-17.81-60.39
				C838.56,189.03,817.96,236.78,811.77,264.65z"/>
			<path d="M727.38,199.62c0,0,25.55-4.65,40.26,0c0,0,3.1-24.77-8.52-31.74S727.38,199.62,727.38,199.62z"/>
			<path d="M689.45,277.04c0,0-9.29-6.97-27.87,19.35c0,0,11.61,0.77,6.19,35.61c0,0,4.65,24.77,21.68,24.77
				C706.48,356.78,735.9,276.26,689.45,277.04z"/>
			<path d="M577.19,333.55c0,0,3.87,17.81,10.84,23.23c6.97,5.42,24,0,24,0s7.74-6.19-5.42-13.94
				C593.45,335.1,592.67,328.91,577.19,333.55z"/>
			<path d="M811.77,387.75c0,0-8.52,51.13,60.39,81.31s106.85,75.25,106.85,75.25s-3.77,73.41-47.96,163.2
				c0,0-192.2,77.38-265.61,58.82C594.39,748.37,573,650.05,556.28,621.56c0,0-4.55-28.58-12.9-43.66
				c-5.17-9.35,4.55-28.28-6.45-46.92c-8.21-13.9-61.86-21.53-54.97-47.23c3.94-14.69,28.65-37.94,58.84-39.48
				c30.19-1.55,67.35,15.48,66.58,41.81c0,0,44.13,51.1,68.9,58.06c0,0,28.84-60.39,11.71-80.52c0,0,38.61,28.65,110.61-72.77
				C798.61,390.84,805.58,383.88,811.77,387.75z"/>
			<path d="M504.41,800.39c0,0,110.86,24.99,109.31,122.54c0,0-27.62,46.32-73.42,55.33c-45.8,9.01-112.31,0.63-150.7-7.88
				c-67.12-14.89-95.8-30.56-95.8-30.56s-75.15-32.86-117.64-72.7c0,0,54.96,9.92,75.86-2.47s44.13-6.97,44.13-6.97
				s13.94-32.52,62.71-66.58s97.55,10.06,109.94,10.84C481.19,802.72,504.41,800.39,504.41,800.39z"/>
			<path d="M89.99,774.24c0,0,50.55-26.49,57.52-21.07c0,0,48.2,2.35,52.65,12.39l34.06-0.77c0,0,16.66-21.42,30.97-16.26h22.45
				c0,0-22.45,11.61-36.39,35.61c0,0-22.45-20.58-41.81-14.93c0,0-13.94,21.13-29.42,24.22c-15.48,3.1,0.54,34.42,0.54,34.42
				s-14.31,9.94-20.28,10.87c-12.88,1.99-15.3,1.29-15.3,1.29S101.76,795.69,89.99,774.24z"/>
			<path d="M530.22,609.19c0,0-124.9,54.17-169.81,92.88s-66.58-40.26-10.06-75.1c0,0,31.74-22.45,49.55-13.94
				c17.81,8.52,54.38,2.28,141.86-44.94C541.76,568.09,540.59,604.64,530.22,609.19z"/>
			<path d="M614.29,379.23c0,0,49.61-4.65,47.29,27.1s-27.87,27.87-41.81,24.77s-10.84-16.26,1.55-17.81s16.26,6.19,24,0.77
				s12.39-24-25.55-24C619.77,390.07,604.16,394.72,614.29,379.23z"/>
		</g>
		<g>
			<polyline class="st3" points="375.6,690.37 357.71,557.3 400.67,577.89 424.04,557.3 448.29,577.89 463.38,552.13 473.98,635.49 
							"/>
			<path class="st4" d="M357.71,557.3l1.45,10.77l42.55,19.43l22.34-21.16l24.11,21.16l16.67-23.99l-1.19-12.66l-14.67,25.87
				c0,0-24.93-21.49-24.93-20.46c0,1.03-23.37,21.63-23.37,21.63L357.71,557.3z"/>
			<polygon class="st5" points="384.54,684.31 369.45,572.76 401.71,587.49 424.04,566.33 448.16,587.49 458.92,572.01 
				465.87,639.43 			"/>
			<line class="st6" x1="382.8" y1="578.86" x2="396.4" y2="677.76"/>
			<line class="st6" x1="401.71" y1="587.49" x2="414" y2="668.05"/>
			<line class="st6" x1="413.77" y1="576.06" x2="428.24" y2="660.19"/>
			<line class="st6" x1="425.86" y1="567.92" x2="440.41" y2="652.52"/>
			<line class="st6" x1="444.31" y1="584.11" x2="452.93" y2="646.56"/>
			<line class="st6" x1="374.7" y1="611.55" x2="460.51" y2="587.49"/>
			<line class="st6" x1="378.22" y1="628.31" x2="447.58" y2="607.81"/>
			<line class="st6" x1="379.37" y1="646.12" x2="448.62" y2="622.33"/>
			<line class="st6" x1="381.42" y1="661.28" x2="451.08" y2="633.12"/>
			<line class="st6" x1="372.27" y1="593.58" x2="439.34" y2="579.76"/>
			<path class="st7" d="M640.73,393.01l18.75,14.32v16.1l-55.57,48.49c0,0-15.62-33.11-72.26-26.51c0,0-28.77,3.5-47.13,32.27
				c-2.69,4.22-7.19-18.7-7.19-18.7l118.42-88.83c0,0,12.01,18.25,16.03,19.41C611.77,389.55,635.63,389.12,640.73,393.01z"/>
			<polygon class="st4" points="477.32,458.97 493.1,466.63 484.51,477.68 			"/>
			<line class="st8" x1="595.74" y1="461.57" x2="659.48" y2="407.33"/>
			<path class="st9" d="M645.32,407.33l-57.29,48.21c0,0-45.73-26.76-86.35,3.44l-8.59,7.65l-7.89-5.05l114.39-86.48
				c0,0,5.19,7.5,11,13.81c0,0,5.3-0.21,10.47,0.54C626.24,390.19,645.32,407.33,645.32,407.33z"/>
			<line class="st10" x1="636.13" y1="399.48" x2="577.08" y2="449.94"/>
			<line class="st10" x1="513.58" y1="451.73" x2="606.6" y2="383.61"/>
			<line class="st10" x1="545.71" y1="443.75" x2="615.23" y2="388.94"/>
			<line class="st10" x1="560.09" y1="445.52" x2="627.61" y2="392.95"/>
			<line class="st10" x1="593.85" y1="379.44" x2="636.13" y2="415.06"/>
			<line class="st10" x1="584.41" y1="386.58" x2="627.61" y2="420.86"/>
			<line class="st10" x1="573.32" y1="394.96" x2="591.91" y2="407.33"/>
			<line class="st10" x1="565.14" y1="401.15" x2="610.6" y2="434.45"/>
			<line class="st10" x1="556.96" y1="407.33" x2="601.6" y2="444.12"/>
			<line class="st10" x1="545.03" y1="416.35" x2="591.84" y2="452.33"/>
			<line class="st10" x1="532.63" y1="425.72" x2="560.09" y2="445.52"/>
			<line class="st10" x1="519.54" y1="435.62" x2="531.64" y2="445.41"/>
			<line class="st10" x1="505.34" y1="446.35" x2="513.58" y2="451.73"/>
		</g>
	</g>
</g>
</svg>
